<mxfile host="app.diagrams.net" modified="2022-02-28T13:02:43.725Z" agent="5.0 (Windows NT 10.0; Win64; x64) AppleWebKit/537.36 (KHTML, like Gecko) Chrome/98.0.4758.102 Safari/537.36" etag="x0-uIgT4SnT9BENsGX0J" version="16.6.4" type="github">
  <diagram id="83VIPr0UrS4PSGp-ske6" name="第 1 页">
    <mxGraphModel dx="1327" dy="820" grid="1" gridSize="10" guides="1" tooltips="1" connect="1" arrows="1" fold="1" page="1" pageScale="1" pageWidth="827" pageHeight="1169" background="none" math="0" shadow="0">
      <root>
        <mxCell id="0" />
        <mxCell id="1" parent="0" />
        <mxCell id="p9zvMSM6CBLnjX6DnjCa-3" value="" style="rounded=1;whiteSpace=wrap;html=1;strokeWidth=2;fillWeight=4;hachureGap=8;hachureAngle=45;fillColor=#fff2cc;strokeColor=#d6b656;shadow=0;glass=0;" vertex="1" parent="1">
          <mxGeometry x="150" y="100" width="120" height="60" as="geometry" />
        </mxCell>
        <mxCell id="p9zvMSM6CBLnjX6DnjCa-4" value="" style="rounded=1;whiteSpace=wrap;html=1;glass=0;shadow=0;gradientColor=none;" vertex="1" parent="1">
          <mxGeometry x="354" y="300" width="120" height="60" as="geometry" />
        </mxCell>
        <mxCell id="p9zvMSM6CBLnjX6DnjCa-5" value="" style="rounded=1;whiteSpace=wrap;html=1;shadow=0;glass=0;gradientColor=none;" vertex="1" parent="1">
          <mxGeometry x="130" y="260" width="110" height="120" as="geometry" />
        </mxCell>
        <mxCell id="p9zvMSM6CBLnjX6DnjCa-7" value="" style="rounded=1;whiteSpace=wrap;html=1;strokeWidth=2;fillWeight=4;hachureGap=8;hachureAngle=45;fillColor=#fff2cc;sketch=1;shadow=0;glass=0;fontFamily=Helvetica;fontSize=12;strokeColor=#d6b656;" vertex="1" parent="1">
          <mxGeometry x="420" y="160" width="120" height="60" as="geometry" />
        </mxCell>
        <mxCell id="p9zvMSM6CBLnjX6DnjCa-8" value="" style="rounded=0;whiteSpace=wrap;html=1;shadow=0;glass=0;fillWeight=4;hachureGap=8;hachureAngle=45;fontFamily=Helvetica;fontSize=12;fontColor=default;strokeColor=#d6b656;strokeWidth=2;fillColor=#fff2cc;" vertex="1" parent="1">
          <mxGeometry x="520" y="60" width="120" height="60" as="geometry" />
        </mxCell>
        <mxCell id="p9zvMSM6CBLnjX6DnjCa-9" value="" style="rounded=1;whiteSpace=wrap;html=1;strokeWidth=2;fillWeight=4;hachureGap=8;hachureAngle=45;fillColor=#1ba1e2;sketch=1;shadow=0;glass=0;fontFamily=Helvetica;fontSize=12;fontColor=default;" vertex="1" parent="1">
          <mxGeometry x="300" y="420" width="120" height="60" as="geometry" />
        </mxCell>
      </root>
    </mxGraphModel>
  </diagram>
</mxfile>
